<?xml version="1.0" standalone="no"?>
<!DOCTYPE svg PUBLIC "-//W3C//DTD SVG 20010904//EN"
 "http://www.w3.org/TR/2001/REC-SVG-20010904/DTD/svg10.dtd">
<svg version="1.0" xmlns="http://www.w3.org/2000/svg"
 width="300.000000pt" height="168.000000pt" viewBox="0 0 300.000000 168.000000"
 preserveAspectRatio="xMidYMid meet">

<g transform="translate(0.000000,168.000000) scale(0.100000,-0.100000)"
fill="#000000" stroke="none">
<path d="M0 955 c0 -399 2 -725 5 -725 2 0 35 12 72 26 142 54 294 105 302
102 5 -2 -78 -37 -185 -78 l-194 -75 0 -77 0 -78 258 0 257 1 59 44 c62 47
101 59 89 28 -4 -10 -10 -21 -15 -24 -14 -9 126 -35 165 -30 4 1 -5 14 -20 30
-30 32 -103 67 -103 50 0 -6 -5 -7 -10 -4 -8 5 -7 11 1 21 10 12 -19 14 -197
14 l-209 1 35 19 c31 17 57 19 236 20 160 0 204 3 220 15 17 13 3 15 -136 16
-85 1 -163 1 -172 0 -26 -3 -22 16 5 25 25 8 335 13 355 6 11 -4 11 -6 0 -13
-13 -9 -9 -9 105 -13 26 -1 47 -5 47 -9 0 -4 0 -11 0 -17 0 -6 -43 -10 -108
-10 -80 0 -113 -4 -128 -15 -17 -13 -6 -14 104 -15 118 0 156 -11 95 -27 l-28
-7 30 -7 c52 -11 150 -10 163 3 19 19 14 30 -11 28 -12 -1 -27 -2 -33 -1 -16
2 -57 80 -50 96 3 8 2 14 -2 14 -23 -4 -154 2 -150 6 3 3 67 7 144 8 117 3
130 2 82 -6 -32 -6 -58 -14 -58 -18 0 -14 34 -27 63 -23 21 2 27 -2 27 -17 0
-14 -7 -19 -27 -20 -25 -1 -24 -3 12 -14 27 -9 102 -14 231 -14 181 -1 192 0
197 18 5 19 13 19 186 15 115 -2 181 0 181 6 0 6 -6 10 -12 10 -9 0 -8 4 2 10
8 5 83 10 165 11 83 1 142 3 133 6 -10 2 -18 9 -18 14 0 5 66 9 154 9 125 0
161 -3 192 -17 l39 -18 -160 -5 c-132 -4 -156 -7 -140 -17 16 -10 -13 -12
-154 -13 -156 0 -173 -2 -155 -15 15 -11 56 -14 199 -14 161 0 177 1 155 14
-22 13 -5 14 160 14 161 0 190 -2 225 -18 l40 -19 -190 -2 -190 -1 35 -19 35
-19 -127 -1 c-81 0 -148 5 -184 15 -31 8 -84 16 -116 17 -39 1 -62 7 -65 16
-3 7 -12 11 -20 8 -8 -3 -11 -1 -8 4 3 6 2 10 -3 10 -23 0 -18 -29 9 -54 16
-15 29 -34 29 -41 0 -21 -33 -28 -46 -10 -11 15 -13 14 -16 -7 -4 -32 -36 -36
-47 -5 -9 24 -75 56 -87 44 -3 -3 4 -8 16 -12 16 -5 19 -12 14 -28 -3 -12 -8
-23 -9 -25 -1 -2 -33 3 -69 9 -47 9 -76 10 -99 3 -42 -14 -179 -12 -184 2 -2
6 29 16 74 25 74 13 78 16 81 42 2 15 -1 27 -7 27 -6 0 -11 -9 -11 -20 0 -19
-7 -20 -220 -20 -194 0 -243 -5 -212 -23 4 -2 2 -2 -5 -1 -21 5 -77 -18 -101
-42 l-23 -22 786 -1 c711 0 786 1 774 15 -12 14 -8 15 37 9 27 -3 65 -8 84
-10 l35 -4 -40 14 c-22 7 -50 14 -62 14 -13 1 -23 4 -23 9 0 13 115 55 165 59
43 4 152 -15 253 -43 16 -5 22 -2 22 9 0 17 12 12 -327 141 -243 93 -314 111
-339 87 -5 -6 -36 -12 -69 -14 -48 -3 -43 -4 30 -5 134 -3 145 -22 13 -22
-106 0 -114 2 -109 32 0 5 -3 8 -9 8 -5 0 -10 -9 -10 -20 0 -11 -6 -20 -14
-20 -10 0 -12 7 -8 22 3 11 1 19 -4 16 -5 -3 -18 -2 -29 3 -16 6 -13 8 15 9
29 1 32 3 15 10 -18 8 -17 9 7 9 15 1 33 -6 42 -14 16 -17 106 -21 106 -5 0
18 137 11 195 -9 30 -11 55 -17 55 -14 0 3 6 0 13 -6 23 -19 208 -82 220 -75
7 4 9 3 4 -1 -4 -5 14 -17 40 -27 59 -22 59 -22 42 -1 -13 15 -12 15 8 3 12
-8 19 -18 16 -24 -4 -5 1 -7 10 -3 9 3 18 1 20 -6 3 -9 9 -8 23 3 17 14 18 14
6 -1 -11 -14 -9 -17 13 -21 14 -3 25 -1 25 3 0 5 -6 9 -12 9 -10 0 -9 3 1 9
11 7 10 11 -5 20 -17 9 -17 10 -1 11 16 0 17 36 17 605 0 598 0 605 -20 605
-13 0 -20 -7 -20 -19 0 -11 -9 -22 -19 -26 -11 -3 -22 -12 -25 -20 -3 -8 -12
-15 -21 -15 -8 0 -15 -9 -15 -19 0 -11 -9 -22 -19 -26 -11 -3 -22 -12 -25 -20
-3 -8 -12 -15 -21 -15 -8 0 -15 -5 -15 -11 0 -6 -14 -24 -31 -40 -26 -24 -40
-29 -82 -29 -41 0 -56 -5 -78 -26 -16 -15 -36 -27 -46 -28 -30 -2 -83 -30 -83
-43 0 -8 -15 -13 -40 -13 -29 0 -40 4 -40 15 0 11 -11 15 -40 15 -22 0 -40 5
-40 10 0 6 -18 10 -40 10 -22 0 -40 5 -40 10 0 6 -19 10 -42 10 -24 0 -63 9
-87 20 -24 11 -54 20 -67 20 -13 0 -24 5 -24 10 0 6 -7 10 -15 10 -8 0 -30 14
-48 30 -22 19 -46 30 -64 30 -18 0 -34 8 -43 21 -8 11 -32 28 -52 36 -21 8
-38 20 -38 27 0 6 -18 24 -40 40 -22 17 -40 35 -40 40 0 6 -16 24 -35 39 -19
15 -34 31 -33 35 2 13 -16 47 -31 59 -9 6 -17 16 -17 22 -1 6 -2 15 -3 20 0 5
-10 13 -21 16 -11 3 -20 15 -20 26 0 19 -16 19 -760 19 l-760 0 0 -725z m1525
485 c3 -11 4 -24 1 -29 -3 -5 1 -11 9 -15 10 -3 15 -19 15 -47 0 -34 -4 -42
-22 -47 -19 -5 -14 -8 22 -15 25 -4 52 -9 60 -10 10 -1 16 -15 17 -42 3 -49
-7 -67 -40 -70 -20 -2 -24 1 -20 16 4 15 0 19 -18 19 -13 0 -31 5 -39 10 -12
8 -12 10 5 10 18 0 18 2 -5 20 -14 11 -33 17 -44 14 -21 -7 -68 15 -60 28 3 4
22 8 43 8 21 0 40 3 43 6 6 5 -8 55 -23 87 -7 12 -5 16 3 15 9 -2 12 8 12 30
-2 25 2 32 16 32 10 0 21 -9 25 -20z m49 -330 c4 0 4 5 0 12 -4 6 -3 8 2 5 5
-3 9 -23 7 -44 -1 -29 5 -47 23 -68 39 -45 33 -59 -23 -51 -26 3 -50 12 -55
19 -6 9 -8 9 -8 0 0 -7 -5 -13 -11 -13 -5 0 -7 5 -4 10 4 6 -12 10 -40 10 -58
0 -51 19 8 21 l42 2 -40 7 -40 7 38 2 c42 1 87 31 48 31 -12 0 -21 6 -21 15 0
8 9 15 20 15 15 0 20 7 20 28 1 24 2 25 14 10 7 -10 16 -18 20 -18z m295 -159
c8 -5 11 -16 8 -25 -6 -15 -8 -15 -25 1 -27 26 -14 44 17 24z m161 -11 c8 -15
8 -20 -3 -20 -14 0 -37 19 -37 32 0 16 30 7 40 -12z m-453 -73 c-2 -24 -6 -32
-19 -31 -10 1 -27 2 -38 3 -26 1 -21 45 6 49 10 2 23 8 28 13 15 14 24 1 23
-34z m333 17 c0 -8 -6 -14 -14 -14 -8 0 -12 -7 -10 -17 2 -10 0 -25 -6 -33 -9
-13 -11 -13 -20 0 -5 8 -7 23 -4 33 6 19 -12 24 -19 5 -4 -8 -6 -7 -6 3 -1 20
24 43 38 35 5 -4 12 -2 16 4 8 13 25 3 25 -16z m150 -10 c0 -21 -5 -24 -32
-23 -18 0 -28 3 -22 5 7 3 10 13 7 23 -4 14 1 19 21 19 21 0 26 -5 26 -24z
m-971 -15 c-16 -10 -23 -4 -14 10 3 6 11 8 17 5 6 -4 5 -9 -3 -15z m198 -9 c1
-14 0 -19 -3 -12 -3 6 -12 12 -20 12 -8 0 -14 5 -14 11 0 5 -4 8 -9 4 -5 -3
-13 0 -16 6 -5 7 4 9 26 7 28 -2 34 -7 36 -28z m489 14 c13 -11 15 -17 6 -20
-6 -3 -10 -10 -6 -15 3 -5 -6 -4 -20 3 -25 11 -33 28 -19 41 10 10 17 9 39 -9z
m-753 -56 c3 -11 1 -15 -6 -11 -7 4 -8 0 -4 -11 5 -12 3 -16 -5 -14 -7 3 -13
10 -13 16 0 5 -3 14 -7 18 -14 13 -8 23 11 21 11 -1 22 -9 24 -19z m1015 -18
c0 -20 -3 -28 -11 -24 -7 3 1 -5 17 -18 28 -23 27 -37 -1 -32 -7 1 -21 2 -30
3 -16 1 -16 3 -3 11 8 5 10 10 4 10 -11 0 -12 60 0 79 12 18 23 5 24 -29z
m-465 -52 c3 -46 12 -96 20 -113 69 -139 82 -187 52 -199 -9 -3 -15 0 -15 10
0 8 -5 12 -10 9 -6 -4 -8 -11 -5 -16 4 -5 -1 -9 -10 -9 -12 0 -15 6 -10 22 6
18 4 20 -11 14 -37 -15 -74 -16 -74 -2 0 8 9 12 23 11 12 -1 14 0 5 2 -10 2
-24 13 -31 23 -9 13 -23 19 -43 17 -23 -2 -29 2 -29 18 0 14 7 20 25 21 14 0
43 2 65 3 39 3 39 3 -20 15 -50 10 -55 13 -30 17 32 4 47 35 24 50 -11 6 -10
9 4 15 18 7 24 44 7 44 -5 0 -10 4 -10 10 0 5 7 7 15 4 11 -5 15 1 14 22 0 16
-3 23 -6 16 -9 -22 -23 -2 -23 33 0 24 5 35 18 38 48 13 49 11 55 -75z m204
56 c-3 -3 -12 -4 -19 -1 -8 3 -5 6 6 6 11 1 17 -2 13 -5z m97 -8 c-3 -9 3 -17
15 -21 25 -8 28 -22 4 -20 -24 3 -71 24 -55 24 6 1 12 8 12 16 0 8 7 15 15 15
8 0 12 -6 9 -14z m-1090 -58 c-8 -13 -31 -9 -37 6 -9 23 14 38 29 18 7 -9 10
-20 8 -24z m496 27 c9 -10 9 -15 1 -15 -6 0 -11 6 -11 13 0 8 -4 7 -10 -3 -8
-13 -10 -12 -10 3 0 21 13 22 30 2z m500 -6 c0 -5 -9 -9 -20 -9 -12 0 -20 -7
-20 -17 0 -15 -2 -15 -9 -4 -7 11 -3 20 11 33 20 17 38 16 38 -3z m-680 1 c0
-5 -4 -10 -10 -10 -5 0 -10 5 -10 10 0 6 5 10 10 10 6 0 10 -4 10 -10z m-223
-32 c-3 -7 -5 -2 -5 12 0 14 2 19 5 13 2 -7 2 -19 0 -25z m141 -8 c11 -18 10
-20 -12 -20 -27 0 -41 14 -31 30 10 16 29 12 43 -10z m197 10 c-3 -5 0 -7 9
-4 9 3 24 -5 37 -20 12 -14 26 -23 31 -20 4 3 8 -9 8 -25 0 -28 -3 -31 -30
-31 -29 0 -37 16 -15 32 18 13 -10 43 -41 43 -16 1 -28 4 -26 8 1 4 2 12 2 17
0 6 7 10 16 10 8 0 12 -4 9 -10z m95 -12 c0 -12 -3 -18 -7 -14 -11 10 -12 36
-2 36 5 0 9 -10 9 -22z m483 15 c-7 -2 -19 -2 -25 0 -7 3 -2 5 12 5 14 0 19
-2 13 -5z m-993 -13 c0 -5 -5 -10 -11 -10 -5 0 -7 5 -4 10 3 6 8 10 11 10 2 0
4 -4 4 -10z m360 -25 c0 -5 -5 -3 -10 5 -5 8 -10 20 -10 25 0 6 5 3 10 -5 5
-8 10 -19 10 -25z m88 -20 c-3 -3 -9 2 -12 12 -6 14 -5 15 5 6 7 -7 10 -15 7
-18z m627 5 c8 -13 -25 -13 -45 0 -12 8 -9 10 12 10 15 0 30 -4 33 -10z m155
-9 c0 -6 -4 -13 -10 -16 -5 -3 -10 1 -10 9 0 9 5 16 10 16 6 0 10 -4 10 -9z
m-1293 -23 c6 16 23 6 23 -15 0 -9 -6 -13 -15 -9 -10 3 -15 -1 -15 -12 -1 -13
-4 -11 -14 8 -15 27 -10 51 6 29 7 -11 11 -11 15 -1z m1037 -35 c13 -84 12
-98 -4 -98 -12 0 -15 15 -16 73 -1 82 10 95 20 25z m363 41 c-3 -3 -12 -4 -19
-1 -8 3 -5 6 6 6 11 1 17 -2 13 -5z m33 -24 c0 -25 -15 -33 -30 -15 -9 11 -9
17 2 28 16 18 28 12 28 -13z m-303 -4 c-3 -8 3 -31 13 -51 20 -39 17 -67 -5
-59 -9 4 -12 -3 -11 -19 1 -18 5 -23 20 -19 13 3 17 1 12 -6 -4 -7 -1 -12 6
-12 10 0 10 -2 0 -8 -7 -5 27 -9 75 -11 48 -1 90 -4 95 -7 14 -9 -35 -42 -52
-36 -11 5 -9 8 10 14 23 6 23 7 -5 5 -21 -1 -30 -7 -29 -19 1 -10 -8 -18 -22
-21 -21 -4 -28 3 -26 24 1 3 -15 6 -34 7 -18 1 -34 -3 -34 -8 0 -6 5 -10 10
-10 6 0 10 -4 10 -8 0 -5 -15 -9 -33 -10 -23 -1 -34 3 -34 13 0 8 8 15 17 15
10 0 23 7 30 15 10 13 9 15 -9 15 -11 0 -21 5 -21 10 0 6 -7 10 -16 10 -10 0
-14 6 -10 18 2 9 7 39 11 67 3 27 12 53 18 57 8 5 6 8 -7 8 -14 0 -16 3 -7 13
6 8 8 17 4 20 -3 4 2 7 11 7 12 0 16 -5 13 -14z m163 -5 c0 -10 7 -38 15 -62
17 -48 7 -72 -19 -46 -9 8 -21 17 -28 19 -10 4 -10 8 -2 19 6 8 10 28 9 44 -1
17 0 33 2 38 8 14 23 7 23 -12z m-1287 -38 c-7 -2 -19 -2 -25 0 -7 3 -2 5 12
5 14 0 19 -2 13 -5z m102 -23 c-3 -5 -1 -10 5 -12 6 -2 6 -8 0 -18 -8 -12 -11
-11 -16 8 -4 12 -10 22 -15 22 -5 0 -6 7 -3 15 5 12 10 13 20 4 8 -6 12 -15 9
-19z m256 18 c1 -7 1 -16 0 -20 0 -5 3 -8 8 -8 5 0 11 -7 15 -15 4 -11 -1 -15
-19 -15 -22 0 -25 4 -25 35 0 32 18 52 21 23z m1056 6 c-3 -3 -12 -4 -19 -1
-8 3 -5 6 6 6 11 1 17 -2 13 -5z m-897 -29 c0 -14 -4 -25 -10 -25 -8 0 -8 23
-1 48 4 12 11 -3 11 -23z m-247 -17 c2 -13 7 -30 11 -38 5 -11 0 -16 -19 -18
-23 -2 -25 2 -25 38 0 44 24 57 33 18z m-253 -84 c0 -2 -7 -1 -15 2 -9 4 -15
0 -15 -7 0 -11 -3 -11 -10 1 -11 17 -13 73 -3 83 5 6 43 -64 43 -79z m1395 50
c23 -54 20 -66 -10 -52 -25 11 -32 38 -19 72 9 23 12 20 29 -20z m-882 -40
c12 -39 14 -60 7 -69 -5 -6 -7 -15 -3 -19 4 -4 0 -4 -9 -1 -9 4 -14 13 -11 21
3 9 -1 14 -12 14 -13 0 -16 9 -14 48 4 82 17 84 42 6z m497 11 c0 -10 -10 -15
-27 -15 l-28 0 25 14 c14 8 26 14 28 15 1 1 2 -6 2 -14z m287 -2 c5 -14 -27
-21 -57 -12 -16 4 -19 7 -7 8 9 1 17 5 17 11 0 13 43 6 47 -7z m-952 -3 c3 -5
-1 -10 -10 -10 -9 0 -13 5 -10 10 3 6 8 10 10 10 2 0 7 -4 10 -10z m225 -35
c0 -9 -6 -12 -15 -9 -8 4 -15 10 -15 15 0 5 7 9 15 9 8 0 15 -7 15 -15z m-291
-11 c2 -2 -10 -4 -27 -4 -18 0 -32 5 -32 10 0 9 47 4 59 -6z m76 6 c3 -5 -1
-10 -9 -10 -9 0 -16 5 -16 10 0 6 4 10 9 10 6 0 13 -4 16 -10z m655 2 c0 -4
-16 -6 -35 -4 -19 2 -35 6 -35 8 0 2 16 4 35 4 19 0 35 -4 35 -8z m-973 -19
c-9 -9 -99 -14 -94 -6 3 5 27 10 52 10 25 1 44 -1 42 -4z m63 -3 c0 -5 -9 -10
-20 -10 -11 0 -20 5 -20 10 0 6 9 10 20 10 11 0 20 -4 20 -10z m1328 -5 c3 -3
-15 -5 -39 -5 -32 0 -40 3 -29 10 15 9 57 6 68 -5z m-570 -2 c-15 -2 -42 -2
-60 0 -18 2 -6 4 27 4 33 0 48 -2 33 -4z m-557 -18 c-1 -12 -41 -15 -101 -6
l-45 6 65 6 c78 6 82 6 81 -6z m619 -11 c0 -8 9 -14 20 -14 11 0 20 -7 20 -15
0 -17 -30 -35 -61 -35 -30 0 -19 -9 14 -12 14 -1 23 -6 21 -10 -3 -4 -42 -8
-87 -7 -82 1 -82 1 -42 14 l40 13 -60 2 c-33 1 -78 1 -100 1 -22 -1 -47 3 -55
9 -11 7 -2 10 35 10 51 1 138 20 151 33 4 4 -14 7 -41 7 -76 0 -43 14 48 20
91 6 97 5 97 -16z m-890 -9 c0 -9 -8 -14 -22 -12 -17 1 -22 -3 -20 -15 2 -11
-3 -18 -13 -18 -8 0 -14 3 -14 8 4 24 -5 32 -33 34 -25 1 -21 3 17 8 80 11 85
11 85 -5z m1140 -25 c0 -16 12 -19 98 -25 138 -10 146 -23 15 -24 -61 0 -123
-5 -138 -11 -24 -9 -26 -9 -16 4 8 9 8 16 2 20 -5 4 -12 2 -16 -4 -9 -15 -25
-2 -18 15 4 12 -5 15 -38 17 -44 1 -43 1 11 8 30 4 44 8 30 10 -19 2 -15 4 15
9 48 8 55 6 55 -19z m65 20 c-3 -5 3 -10 14 -10 12 0 21 -4 21 -10 0 -13 -13
-13 -45 2 -24 11 -25 13 -8 19 25 10 25 10 18 -1z m-675 -60 c4 -3 9 -13 13
-23 4 -9 10 -17 14 -16 4 1 42 1 84 0 58 -1 78 -5 83 -16 5 -13 -10 -15 -102
-14 -59 0 -101 3 -94 6 23 9 12 23 -13 17 -15 -4 -25 -2 -25 4 0 6 -26 14 -57
19 l-58 8 64 5 c79 6 98 30 24 31 -36 0 -43 3 -28 9 11 5 16 9 10 10 -5 1 1 5
15 9 20 6 29 2 45 -18 10 -15 22 -28 25 -31z m133 43 c-7 -2 -21 -2 -30 0 -10
3 -4 5 12 5 17 0 24 -2 18 -5z m-846 -9 c-3 -3 -12 -4 -19 -1 -8 3 -5 6 6 6
11 1 17 -2 13 -5z m233 -10 c0 -2 -17 -4 -37 -4 -24 0 -33 3 -25 9 12 7 62 4
62 -5z m443 -21 c-7 -2 -21 -2 -30 0 -10 3 -4 5 12 5 17 0 24 -2 18 -5z m1487
-13 c8 -5 11 -10 5 -10 -5 0 -17 5 -25 10 -8 5 -10 10 -5 10 6 0 17 -5 25 -10z
m-1474 -59 c-3 -5 -15 -7 -26 -4 -28 7 -25 13 6 13 14 0 23 -4 20 -9z m984
-106 c0 -8 -4 -15 -9 -15 -5 0 -14 7 -21 15 -10 13 -9 15 9 15 12 0 21 -6 21
-15z m-485 -15 c3 -5 2 -10 -4 -10 -5 0 -13 5 -16 10 -3 6 -2 10 4 10 5 0 13
-4 16 -10z"/>
<path d="M1555 1040 c3 -5 8 -10 11 -10 2 0 4 5 4 10 0 6 -5 10 -11 10 -5 0
-7 -4 -4 -10z"/>
<path d="M1860 529 c0 -5 5 -7 10 -4 6 3 10 8 10 11 0 2 -4 4 -10 4 -5 0 -10
-5 -10 -11z"/>
<path d="M1948 408 c12 -6 22 -16 22 -22 0 -6 4 -4 9 4 13 20 4 30 -27 29 -27
0 -27 0 -4 -11z"/>
<path d="M1600 350 c0 -5 7 -10 15 -10 8 0 15 5 15 10 0 6 -7 10 -15 10 -8 0
-15 -4 -15 -10z"/>
<path d="M1578 155 c3 -19 9 -24 26 -20 90 18 124 23 147 18 16 -3 30 1 38 11
12 14 2 16 -101 16 l-115 0 5 -25z"/>
<path d="M731 166 c2 -2 18 -6 34 -10 22 -5 26 -4 15 4 -14 9 -59 15 -49 6z"/>
<path d="M2708 54 c26 -12 10 -25 -30 -24 -24 0 -155 1 -293 2 -137 0 -261 1
-275 1 -14 1 -70 0 -125 -1 -90 -2 -98 -4 -81 -17 16 -12 69 -15 297 -15 169
0 281 4 284 10 3 6 12 10 18 10 8 0 8 -3 -1 -9 -8 -5 35 -8 105 -8 75 0 103 3
78 7 l-40 7 48 2 c30 0 46 -3 42 -9 -4 -6 24 -10 76 -10 46 0 79 4 74 8 -6 5
-41 17 -80 26 -86 22 -114 28 -97 20z"/>
<path d="M0 21 l0 -21 790 0 c495 1 790 4 790 10 0 6 10 10 23 9 21 0 21 -1 2
-9 -13 -6 15 -9 81 -9 93 -1 124 7 124 29 0 4 -58 6 -129 6 -76 -1 -127 -5
-123 -10 3 -5 -3 -6 -13 -2 -11 4 -362 10 -782 13 l-763 6 0 -22z"/>
<path d="M2960 23 c-42 -8 -41 -18 1 -20 29 -2 39 1 39 12 0 8 -3 14 -7 14 -5
-1 -19 -4 -33 -6z"/>
</g>
</svg>
